<?xml version="1.0" encoding="UTF-8"?>
<!DOCTYPE svg PUBLIC "-//W3C//DTD SVG 1.1//EN" "http://www.w3.org/Graphics/SVG/1.1/DTD/svg11.dtd">
<svg xmlns="http://www.w3.org/2000/svg" version="1.1" width="856px" height="802px" style="shape-rendering:geometricPrecision; text-rendering:geometricPrecision; image-rendering:optimizeQuality; fill-rule:evenodd; clip-rule:evenodd" xmlns:xlink="http://www.w3.org/1999/xlink">
<g><path style="opacity:1" fill="#fef000" d="M 587.5,224.5 C 587.821,226.048 588.821,226.715 590.5,226.5C 595.424,228.767 600.091,231.433 604.5,234.5C 604.821,236.048 605.821,236.715 607.5,236.5C 625.312,247.973 641.979,260.973 657.5,275.5C 658.5,278.5 660.5,280.5 663.5,281.5C 663.738,283.404 664.738,284.738 666.5,285.5C 669.5,287.833 672.167,290.5 674.5,293.5C 674.738,295.404 675.738,296.738 677.5,297.5C 684.794,304.764 691.127,312.764 696.5,321.5C 696.414,322.496 696.748,323.329 697.5,324C 694.447,324.179 691.447,324.679 688.5,325.5C 695.396,352.302 701.062,379.635 705.5,407.5C 707.694,422.774 709.361,438.107 710.5,453.5C 711.645,481.174 711.812,508.84 711,536.5C 726.338,539.001 741.504,542.334 756.5,546.5C 766.608,548.304 775.441,552.637 783,559.5C 784.113,566.759 784.613,574.092 784.5,581.5C 784.333,587.833 784.167,594.167 784,600.5C 783.722,601.416 783.222,602.082 782.5,602.5C 774.13,596.149 764.797,591.649 754.5,589C 722.257,581.126 689.591,575.96 656.5,573.5C 647.438,573.479 638.771,575.312 630.5,579C 618.833,587.333 607.167,595.667 595.5,604C 580.856,612.326 565.189,617.659 548.5,620C 476.514,621.617 404.514,621.95 332.5,621C 325.105,620.606 317.772,619.773 310.5,618.5C 297.542,615.358 285.209,610.525 273.5,604C 262.22,596.387 251.22,588.387 240.5,580C 234.119,577.071 227.452,575.071 220.5,574C 180.695,575.245 141.695,581.578 103.5,593C 97.2881,595.937 91.2881,599.104 85.5,602.5C 84.0183,588.142 84.1849,573.809 86,559.5C 92.6635,553.251 100.497,549.251 109.5,547.5C 156.394,535.512 204.061,528.512 252.5,526.5C 252.103,499.798 252.77,473.132 254.5,446.5C 256.493,425.222 259.16,403.889 262.5,382.5C 266.021,364.081 270.021,345.747 274.5,327.5C 279.37,311.022 284.703,294.689 290.5,278.5C 297.134,261.793 304.468,245.293 312.5,229C 300.659,228.831 288.993,228.331 277.5,227.5C 292.534,218.152 308.534,210.652 325.5,205C 326.123,202.393 326.79,199.893 327.5,197.5C 328.924,195.485 329.59,193.152 329.5,190.5C 330.906,190.027 331.573,189.027 331.5,187.5C 332.906,187.027 333.573,186.027 333.5,184.5C 335.404,184.262 336.738,183.262 337.5,181.5C 339.898,179.026 342.898,177.692 346.5,177.5C 349.152,177.59 351.485,176.924 353.5,175.5C 364.822,172.036 376.488,169.702 388.5,168.5C 393.731,168.556 398.731,167.889 403.5,166.5C 444.474,162.243 484.807,165.743 524.5,177C 530.896,178.62 536.062,182.12 540,187.5C 542.399,193.329 544.232,199.329 545.5,205.5C 559.865,211.064 573.865,217.398 587.5,224.5 Z"/></g>
<g><path style="opacity:0.976" fill="#9f9704" d="M 403.5,166.5 C 398.731,167.889 393.731,168.556 388.5,168.5C 393.269,167.111 398.269,166.444 403.5,166.5 Z"/></g>
<g><path style="opacity:0.929" fill="#908807" d="M 353.5,175.5 C 351.485,176.924 349.152,177.59 346.5,177.5C 348.515,176.076 350.848,175.41 353.5,175.5 Z"/></g>
<g><path style="opacity:0.773" fill="#777010" d="M 337.5,181.5 C 336.738,183.262 335.404,184.262 333.5,184.5C 334.262,182.738 335.596,181.738 337.5,181.5 Z"/></g>
<g><path style="opacity:0.686" fill="#5d580f" d="M 333.5,184.5 C 333.573,186.027 332.906,187.027 331.5,187.5C 331.427,185.973 332.094,184.973 333.5,184.5 Z"/></g>
<g><path style="opacity:0.349" fill="#575209" d="M 331.5,187.5 C 331.573,189.027 330.906,190.027 329.5,190.5C 329.427,188.973 330.094,187.973 331.5,187.5 Z"/></g>
<g><path style="opacity:0.976" fill="#8c8508" d="M 329.5,190.5 C 329.59,193.152 328.924,195.485 327.5,197.5C 327.41,194.848 328.076,192.515 329.5,190.5 Z"/></g>
<g><path style="opacity:0.91" fill="#6e6812" d="M 587.5,224.5 C 588.71,224.932 589.71,225.599 590.5,226.5C 588.821,226.715 587.821,226.048 587.5,224.5 Z"/></g>
<g><path style="opacity:1" fill="#f8e600" d="M 277.5,227.5 C 288.993,228.331 300.659,228.831 312.5,229C 304.468,245.293 297.134,261.793 290.5,278.5C 264.167,277.833 237.833,277.167 211.5,276.5C 230.675,256.319 252.675,239.986 277.5,227.5 Z"/></g>
<g><path style="opacity:0.933" fill="#736d12" d="M 604.5,234.5 C 605.71,234.932 606.71,235.599 607.5,236.5C 605.821,236.715 604.821,236.048 604.5,234.5 Z"/></g>
<g><path style="opacity:1" fill="#4b4d4c" d="M 433.5,266.5 C 433.56,265.957 433.893,265.624 434.5,265.5C 459.299,306.934 483.966,348.434 508.5,390C 507.66,391.767 506.327,393.101 504.5,394C 481.305,408.429 457.972,422.596 434.5,436.5C 434.832,379.664 434.499,322.998 433.5,266.5 Z"/></g>
<g><path style="opacity:1" fill="#0b0b0a" d="M 433.5,266.5 C 434.499,322.998 434.832,379.664 434.5,436.5C 409.267,421.727 384.6,406.227 360.5,390C 384.46,348.575 408.793,307.408 433.5,266.5 Z"/></g>
<g><path style="opacity:0.604" fill="#4c4710" d="M 657.5,275.5 C 659.833,277.167 661.833,279.167 663.5,281.5C 660.5,280.5 658.5,278.5 657.5,275.5 Z"/></g>
<g><path style="opacity:1" fill="#f6e100" d="M 211.5,276.5 C 237.833,277.167 264.167,277.833 290.5,278.5C 284.703,294.689 279.37,311.022 274.5,327.5C 240.012,325.835 205.345,324.835 170.5,324.5C 180.397,309.392 191.731,295.392 204.5,282.5C 207.089,281.581 209.089,279.914 210.5,277.5C 210.5,276.833 210.833,276.5 211.5,276.5 Z"/></g>
<g><path style="opacity:0.792" fill="#807613" d="M 210.5,277.5 C 209.089,279.914 207.089,281.581 204.5,282.5C 205.911,280.086 207.911,278.419 210.5,277.5 Z"/></g>
<g><path style="opacity:0.616" fill="#575110" d="M 663.5,281.5 C 665.262,282.262 666.262,283.596 666.5,285.5C 664.738,284.738 663.738,283.404 663.5,281.5 Z"/></g>
<g><path style="opacity:0.757" fill="#5f5a11" d="M 674.5,293.5 C 676.262,294.262 677.262,295.596 677.5,297.5C 675.738,296.738 674.738,295.404 674.5,293.5 Z"/></g>
<g><path style="opacity:1" fill="#f3dc00" d="M 170.5,324.5 C 205.345,324.835 240.012,325.835 274.5,327.5C 270.021,345.747 266.021,364.081 262.5,382.5C 221.153,383.161 180.153,382.494 139.5,380.5C 147.402,360.321 157.735,341.654 170.5,324.5 Z"/></g>
<g><path style="opacity:1" fill="#f4e000" d="M 696.5,321.5 C 714.955,346.741 728.955,374.408 738.5,404.5C 738.5,405.5 738.5,406.5 738.5,407.5C 727.5,407.5 716.5,407.5 705.5,407.5C 701.062,379.635 695.396,352.302 688.5,325.5C 691.447,324.679 694.447,324.179 697.5,324C 696.748,323.329 696.414,322.496 696.5,321.5 Z"/></g>
<g><path style="opacity:1" fill="#f0d600" d="M 139.5,380.5 C 180.153,382.494 221.153,383.161 262.5,382.5C 259.16,403.889 256.493,425.222 254.5,446.5C 254.5,445.167 254.5,443.833 254.5,442.5C 210.167,442.5 165.833,442.5 121.5,442.5C 121.5,441.167 121.5,439.833 121.5,438.5C 125.044,418.303 131.044,398.969 139.5,380.5 Z"/></g>
<g><path style="opacity:1" fill="#f3db00" d="M 738.5,404.5 C 743.8,418.307 747.467,432.64 749.5,447.5C 749.5,449.5 749.5,451.5 749.5,453.5C 736.5,453.5 723.5,453.5 710.5,453.5C 709.361,438.107 707.694,422.774 705.5,407.5C 716.5,407.5 727.5,407.5 738.5,407.5C 738.5,406.5 738.5,405.5 738.5,404.5 Z"/></g>
<g><path style="opacity:1" fill="#0d0c0a" d="M 433.5,461.5 C 434.825,481.264 434.825,500.931 433.5,520.5C 408.996,485.87 384.829,451.203 361,416.5C 385.279,431.386 409.445,446.386 433.5,461.5 Z"/></g>
<g><path style="opacity:1" fill="#4c4e4c" d="M 433.5,520.5 C 434.825,500.931 434.825,481.264 433.5,461.5C 458.665,447.193 483.499,432.193 508,416.5C 484.057,451.657 459.557,486.657 434.5,521.5C 433.893,521.376 433.56,521.043 433.5,520.5 Z"/></g>
<g><path style="opacity:1" fill="#eed100" d="M 121.5,438.5 C 121.5,439.833 121.5,441.167 121.5,442.5C 165.833,442.5 210.167,442.5 254.5,442.5C 254.5,443.833 254.5,445.167 254.5,446.5C 252.77,473.132 252.103,499.798 252.5,526.5C 204.061,528.512 156.394,535.512 109.5,547.5C 110.641,546.661 111.974,545.994 113.5,545.5C 114.333,523.841 114.833,502.174 115,480.5C 115.927,466.167 118.093,452.167 121.5,438.5 Z"/></g>
<g><path style="opacity:1" fill="#eed300" d="M 749.5,447.5 C 751.804,457.912 753.304,468.579 754,479.5C 753.859,502.061 754.692,524.395 756.5,546.5C 741.504,542.334 726.338,539.001 711,536.5C 711.812,508.84 711.645,481.174 710.5,453.5C 723.5,453.5 736.5,453.5 749.5,453.5C 749.5,451.5 749.5,449.5 749.5,447.5 Z"/></g>
<g><path style="opacity:1" fill="#ecd000" d="M 310.5,618.5 C 316.937,627.187 323.27,636.02 329.5,645C 324.511,645.499 319.511,645.666 314.5,645.5C 280.536,644.23 246.87,641.23 213.5,636.5C 208.731,635.111 203.731,634.444 198.5,634.5C 165.748,631.183 133.748,624.35 102.5,614C 95.7289,611.628 90.0622,607.795 85.5,602.5C 91.2881,599.104 97.2881,595.937 103.5,593C 141.695,581.578 180.695,575.245 220.5,574C 227.452,575.071 234.119,577.071 240.5,580C 251.22,588.387 262.22,596.387 273.5,604C 285.209,610.525 297.542,615.358 310.5,618.5 Z"/></g>
<g><path style="opacity:1" fill="#e8cb00" d="M 782.5,602.5 C 782.141,604.371 781.141,605.871 779.5,607C 763.461,615.57 746.461,621.57 728.5,625C 671.34,636.092 613.673,643.092 555.5,646C 474.994,650.83 394.661,650.663 314.5,645.5C 319.511,645.666 324.511,645.499 329.5,645C 323.27,636.02 316.937,627.187 310.5,618.5C 317.772,619.773 325.105,620.606 332.5,621C 404.514,621.95 476.514,621.617 548.5,620C 565.189,617.659 580.856,612.326 595.5,604C 607.167,595.667 618.833,587.333 630.5,579C 638.771,575.312 647.438,573.479 656.5,573.5C 689.591,575.96 722.257,581.126 754.5,589C 764.797,591.649 774.13,596.149 782.5,602.5 Z"/></g>
<g><path style="opacity:0.988" fill="#8e7f05" d="M 198.5,634.5 C 203.731,634.444 208.731,635.111 213.5,636.5C 208.269,636.556 203.269,635.889 198.5,634.5 Z"/></g>
</svg>
